<!--
  Vientonorte Design System - Icon Sprite
  Version: 1.0.0
  
  SVG sprite with reusable icons for the vientonorte design system.
  Usage: <svg class="icon"><use href="icons.svg#icon-name"></use></svg>
  Or inline: <use href="#icon-name"></use>
-->
<svg xmlns="http://www.w3.org/2000/svg" style="display:none" aria-hidden="true" focusable="false">
    <defs>
        <!-- Site/Page Icon -->
        <symbol id="icon-site" viewBox="0 0 16 16">
            <path d="M4.5 8a.75.75 0 0 0 0 1.5h7a.75.75 0 0 0 0-1.5h-7Z"/>
            <path d="M1 1.75C1 .784 1.784 0 2.75 0h10.5c.966 0 1.75.784 1.75 1.75v12.5A1.75 1.75 0 0 1 13.25 16H2.75A1.75 1.75 0 0 1 1 14.25V1.75Zm1.75-.25a.25.25 0 0 0-.25.25v12.5c0 .138.112.25.25.25h10.5a.25.25 0 0 0 .25-.25V1.75a.25.25 0 0 0-.25-.25Z"/>
        </symbol>
        
        <!-- GitHub Icon -->
        <symbol id="icon-github" viewBox="0 0 16 16">
            <path d="M8 0c4.42 0 8 3.58 8 8a8.013 8.013 0 0 1-5.45 7.59c-.4.08-.55-.17-.55-.38 0-.27.01-1.13.01-2.2 0-.75-.25-1.23-.54-1.48 1.78-.2 3.65-.88 3.65-3.95 0-.88-.31-1.59-.82-2.15.08-.2.36-1.02-.08-2.12 0 0-.67-.22-2.2.82-.64-.18-1.32-.27-2-.27-.68 0-1.36.09-2 .27-1.53-1.03-2.2-.82-2.2-.82-.44 1.1-.16 1.92-.08 2.12-.51.56-.82 1.28-.82 2.15 0 3.06 1.86 3.75 3.64 3.95-.23.2-.44.55-.51 1.07-.46.21-1.61.55-2.33-.66-.15-.24-.6-.83-1.23-.82-.67.01-.27.38.01.53.34.19.73.9.82 1.13.16.45.68 1.31 2.69.94 0 .67.01 1.3.01 1.49 0 .21-.15.45-.55.38A7.995 7.995 0 0 1 0 8c0-4.42 3.58-8 8-8Z"/>
        </symbol>
    </defs>
</svg>
